<?xml version="1.0" encoding="UTF-8" standalone="no"?>
<!DOCTYPE svg PUBLIC "-//W3C//DTD SVG 1.0//EN" "http://www.w3.org/TR/2001/REC-SVG-20010904/DTD/svg10.dtd">
<!-- Generated by Microsoft Visio 11.0, SVG Export, v1.0 AT_KegLCDBox_2010-08-15.svg Page-1 -->
<svg xmlns="http://www.w3.org/2000/svg" xmlns:v="http://schemas.microsoft.com/visio/2003/SVGExtensions/" width="8.5in"
		height="11in" viewBox="0 0 612 792" xml:space="preserve" color-interpolation-filters="sRGB" class="st3">
	<v:documentProperties v:langID="1033" v:viewMarkup="false">
		<v:userDefs>
			<v:ud v:nameU="msvNoAutoConnect" v:val="VT0(1):26"/>
		</v:userDefs>
	</v:documentProperties>

	<style type="text/css">
	<![CDATA[
		.st1 {stroke:#0000ff;stroke-linecap:round;stroke-linejoin:round;stroke-width:0.24}
		.st2 {fill:#000000;stroke:none;stroke-linecap:butt;stroke-width:0.24}
		.st3 {fill:none;fill-rule:evenodd;font-size:12;overflow:visible;stroke-linecap:square;stroke-miterlimit:3}
	]]>
	</style>

	<g v:mID="0" v:index="1" v:groupContext="foregroundPage">
		<title>Page-1</title>
		<v:pageProperties v:drawingScale="0.0393701" v:pageScale="0.0393701" v:drawingUnits="24" v:shadowOffsetX="9"
				v:shadowOffsetY="-9"/>
		<g id="shape1-1" v:mID="1" v:groupContext="shape" transform="translate(28.3465,-765.354)">
			<title>Sheet.1</title>
			<path d="M0 792 L360 792" class="st1"/>
		</g>
		<g id="shape3-4" v:mID="3" v:groupContext="shape" transform="translate(-763.654,647.546) rotate(-90)">
			<title>Sheet.3</title>
			<path d="M0 792 L620.9 792" class="st1"/>
		</g>
		<g id="shape4-7" v:mID="4" v:groupContext="shape" transform="translate(-403.654,647.49) rotate(-90)">
			<title>Sheet.4</title>
			<path d="M0 792 L620.84 792" class="st1"/>
		</g>
		<g id="shape2-10" v:mID="2" v:groupContext="shape" transform="translate(85.0394,-711.496)">
			<title>Sheet.2</title>
			<path d="M0 792 L249.45 792" class="st1"/>
		</g>
		<g id="shape5-13" v:mID="5" v:groupContext="shape" transform="translate(85.0394,-558.425)">
			<title>Sheet.5</title>
			<path d="M0 792 L249.45 792" class="st1"/>
		</g>
		<g id="shape6-16" v:mID="6" v:groupContext="shape" transform="translate(-706.961,233.575) rotate(-90)">
			<title>Sheet.6</title>
			<path d="M0 792 L153.07 792" class="st1"/>
		</g>
		<g id="shape7-19" v:mID="7" v:groupContext="shape" transform="translate(-457.512,233.575) rotate(-90)">
			<title>Sheet.7</title>
			<path d="M0 792 L153.07 792" class="st1"/>
		</g>
		<g id="shape10-22" v:mID="10" v:groupContext="shape" transform="translate(28.3465,-498.898)">
			<title>Sheet.10</title>
			<path d="M0 792 L360 792" class="st1"/>
		</g>
		<g id="group11-25" transform="translate(283.465,-501.732)" v:mID="11" v:groupContext="group">
			<title>Sheet.11</title>
			<g id="group12-26" v:mID="12" v:groupContext="group">
				<title>Sheet.12</title>
				<g id="shape13-27" v:mID="13" v:groupContext="shape" transform="translate(-1.98841E-013,-4.22671)">
					<title>Sheet.13</title>
					<path d="M4.11 780.11 C4.25 779.76 4.41 779.36 4.41 779.04 C4.41 778.53 3.87 778.35 2.88 778.11 L2.88 777.77
								 L6.29 777.77 L11.41 792 L9.48 792 L7.82 787.58 L2.82 787.58 L1.25 792 L0 792 L4.11 780.11 Z M3.1
								 786.8 L7.6 786.8 L5.36 779.88 L3.1 786.8 Z" class="st2"/>
				</g>
				<g id="shape14-29" v:mID="14" v:groupContext="shape" transform="translate(11.5902,-0.000172244)">
					<title>Sheet.14</title>
					<path d="M1.57 780.45 C1.57 779.2 0.58 779.18 0 779.12 L0 778.78 L3.1 778.33 L3.1 779.84 L3.14 779.84 C3.37 779.26
								 4.21 778.33 5.52 778.33 C8.04 778.33 9.17 780.37 9.17 783.13 C9.17 785.71 8.21 787.99 5.63 787.99
								 C4.25 787.99 3.39 787.08 3.14 786.42 L3.1 786.42 L3.1 792 L1.57 792 L1.57 780.45 Z M3.1 783.69 C3.1
								 785.02 3.59 787.22 5.34 787.22 C7.16 787.22 7.48 784.74 7.48 783.17 C7.48 781.78 7.1 779.1 5.28
								 779.1 C3.91 779.1 3.1 780.79 3.1 782.26 L3.1 783.69 Z" class="st2"/>
				</g>
				<g id="shape15-31" v:mID="15" v:groupContext="shape" transform="translate(21.8899,0)">
					<title>Sheet.15</title>
					<path d="M1.57 780.45 C1.57 779.2 0.58 779.18 0 779.12 L0 778.78 L3.1 778.33 L3.1 779.84 L3.14 779.84 C3.37 779.26
								 4.21 778.33 5.52 778.33 C8.04 778.33 9.17 780.37 9.17 783.13 C9.17 785.71 8.21 787.99 5.64 787.99
								 C4.25 787.99 3.39 787.08 3.14 786.42 L3.1 786.42 L3.1 792 L1.57 792 L1.57 780.45 L1.57 780.45 Z
								 M3.1 783.69 C3.1 785.02 3.59 787.22 5.34 787.22 C7.16 787.22 7.48 784.74 7.48 783.17 C7.48 781.78
								 7.1 779.1 5.28 779.1 C3.91 779.1 3.1 780.79 3.1 782.26 L3.1 783.69 Z" class="st2"/>
				</g>
				<g id="shape16-33" v:mID="16" v:groupContext="shape" transform="translate(32.1098,-4.22671)">
					<title>Sheet.16</title>
					<path d="M1.55 780.19 C1.55 778.96 0.56 778.59 0 778.55 L0 778.21 L3.08 777.77 L3.08 792 L1.55 792 L1.55 780.19
								 Z" class="st2"/>
				</g>
				<g id="shape17-35" v:mID="17" v:groupContext="shape" transform="translate(37.051,-4.22671)">
					<title>Sheet.17</title>
					<path d="M1.49 784.68 C1.49 783.49 0.56 783.43 0 783.37 L0 783.03 L3.02 782.55 L3.02 792 L1.49 792 L1.49 784.68
								 Z" class="st2"/>
				</g>
				<g id="shape18-37" v:mID="18" v:groupContext="shape" transform="translate(42.002,-4.0083)">
					<title>Sheet.18</title>
					<path d="M7.08 791.64 C6.85 791.74 5.85 792 4.62 792 C1.71 792 -0 790.19 0 786.88 C0 784.02 1.09 782.34 3.99
								 782.34 C5.85 782.34 7.32 783.43 7.32 785.79 L7.32 786.09 L1.53 786.09 L1.53 786.5 C1.53 788.43 2.92
								 791.23 5.68 791.23 C6.15 791.23 6.65 791.11 7.08 790.99 L7.08 791.64 L7.08 791.64 Z M5.6 785.23
								 C5.6 784.12 4.92 783.11 3.73 783.11 C1.93 783.11 1.61 784.74 1.55 785.41 L5.6 785.41 L5.6 785.23
								 Z" class="st2"/>
				</g>
				<g id="shape19-39" v:mID="19" v:groupContext="shape" transform="translate(50.8136,-4.0083)">
					<title>Sheet.19</title>
					<path d="M6.23 790.47 L6.19 790.47 C5.85 791.09 5.1 792 3.69 792 C1.29 792 -0 789.96 0 787.18 C0 784.6 1.11 782.34
								 3.59 782.34 C5.04 782.34 5.87 783.29 6.19 783.9 L6.23 783.9 L6.23 780.33 C6.23 779.04 5.89 778.35
								 4.72 778.33 L4.72 777.99 L7.76 777.56 L7.76 791.78 L6.23 791.78 L6.23 790.47 Z M6.23 786.76 C6.23
								 785.29 5.75 783.11 3.95 783.11 C2.1 783.11 1.69 785.57 1.69 787.18 C1.69 788.55 2.02 791.23 3.87
								 791.23 C5.7 791.23 6.23 789.08 6.23 787.55 L6.23 786.76 Z" class="st2"/>
				</g>
				<g id="shape20-41" v:mID="20" v:groupContext="shape" transform="translate(59.5859,-4.22671)">
					<title>Sheet.20</title>
					<path d="M4.23 778.55 L2.44 778.55 C0.77 778.55 0.73 779.26 0.61 780.47 L0 780.47 L0.1 777.77 L10.08 777.77 L10.18
								 780.47 L9.56 780.47 C9.45 779.26 9.45 778.55 7.74 778.55 L5.95 778.55 L5.95 792 L4.23 792 L4.23
								 778.55 Z" class="st2"/>
				</g>
				<g id="shape21-43" v:mID="21" v:groupContext="shape" transform="translate(69.6355,-4.22688)">
					<title>Sheet.21</title>
					<path d="M1.51 784.74 C1.51 783.49 0.58 783.43 0 783.37 L0 783.03 L3.04 782.55 L3.04 784.92 L3.08 784.92 C3.33
								 784.08 3.83 782.55 5.71 782.55 C5.77 782.55 5.83 782.55 5.89 782.57 L5.89 784.22 C5.68 784.16 5.46
								 784.08 5.24 784.08 C3.31 784.08 3.04 786.03 3.04 787.24 L3.04 792 L1.51 792 L1.51 784.74 L1.51 784.74
								 Z" class="st2"/>
				</g>
				<g id="shape22-45" v:mID="22" v:groupContext="shape" transform="translate(76.1446,-4.0083)">
					<title>Sheet.22</title>
					<path d="M7.22 789.6 L7.18 789.6 C6.92 790.31 5.99 792 4.21 792 C1.98 792 1.49 790.47 1.49 788.27 L1.49 784.46
								 C1.49 783.27 0.56 783.21 0 783.15 L0 782.81 L3.02 782.34 L3.02 788.53 C3.02 789.82 3.33 791.03 4.68
								 791.03 C5.99 791.03 7.22 788.59 7.22 787.3 L7.22 784.46 C7.22 783.27 6.31 783.21 5.73 783.15 L5.73
								 782.81 L8.75 782.34 L8.75 791.78 L7.22 791.78 L7.22 789.6 Z" class="st2"/>
				</g>
				<g id="shape23-47" v:mID="23" v:groupContext="shape" transform="translate(86.7454,-4.0083)">
					<title>Sheet.23</title>
					<path d="M5.48 783.86 C5.16 783.7 4.19 783.11 3.08 783.11 C2.22 783.11 1.43 783.43 1.43 784.38 C1.43 786.36 6.09
								 786.05 6.09 789.16 C6.09 791.15 4.58 792 2.56 792 C1.27 792 0.5 791.76 0 791.6 L0 790.35 C0.2 790.45
								 1.41 791.23 2.64 791.23 C3.83 791.23 4.7 790.79 4.7 789.54 C4.7 787.52 0.04 787.55 0.04 784.94 C0.04
								 783.41 0.95 782.34 3.27 782.34 C4.27 782.34 5.14 782.59 5.48 782.67 L5.48 783.86 L5.48 783.86 Z"
							class="st2"/>
				</g>
				<g id="shape24-49" v:mID="24" v:groupContext="shape" transform="translate(93.7168,-4.0083)">
					<title>Sheet.24</title>
					<path d="M5.5 791.88 C5.12 791.96 4.74 792 4.37 792 C1.71 792 1.53 791.07 1.53 789.2 L1.53 783.23 L0 783.23 L0
								 782.55 L1.53 782.55 L1.53 780.87 L3.04 779.54 L3.04 782.55 L5.5 782.55 L5.5 783.23 L3.06 783.23
								 L3.06 789.78 C3.06 790.97 3.77 791.23 4.74 791.23 C5 791.23 5.26 791.19 5.5 791.15 L5.5 791.88 L5.5
								 791.88 Z" class="st2"/>
				</g>
				<g id="shape25-51" v:mID="25" v:groupContext="shape" transform="translate(41.2699,-22.1232)">
					<title>Sheet.25</title>
					<path d="M8.91 787.64 C11.58 786.92 13.5 786.33 17.38 786.16 C17.14 785.3 15.95 781.38 13.54 779.52 C13.18 779.23
								 13.2 779.25 12.1 778.67 C14.56 782.04 13.46 783.66 13.46 783.66 C13.81 781.94 12.19 779.44 11 778.05
								 C11 778.05 10.2 777.58 10 777.47 C11.79 781.05 10.83 782.24 10.83 782.24 C11.06 780.07 9.72 778
								 9.05 777 C8.65 776.76 7.75 776.24 7.54 776.08 C6.65 775.41 6.34 774.12 8.12 773.93 C10.24 773.71
								 11.11 773.17 12.13 772.76 C13.41 772.24 15.88 770.23 20.43 775.53 C24.91 780.75 25.91 779.25 28.5
								 783.37 L28.5 763.5 L0 763.5 L0 792 C1.31 790.54 6.22 788.38 8.91 787.64 Z" class="st2"/>
				</g>
				<g id="shape26-53" v:mID="26" v:groupContext="shape" transform="translate(37.6103,-15.3385)">
					<title>Sheet.26</title>
					<path d="M0 791.93 C0.1 791.95 0.34 792 0.64 792 C1.1 792 1.47 791.89 1.74 791.68 C2.33 791.22 2.39 790.27 2.4
								 790.05 C2.3 790.03 2.05 789.99 1.76 789.99 C1.3 789.99 0.93 790.1 0.66 790.31 C0.07 790.77 0.01
								 791.72 0 791.93 Z" class="st2"/>
				</g>
			</g>
		</g>
		<g id="shape8-55" v:mID="8" v:groupContext="shape" transform="translate(28.3465,-385.512)">
			<title>Sheet.8</title>
			<path d="M0 792 L360 792" class="st1"/>
		</g>
		<g id="shape28-58" v:mID="28" v:groupContext="shape" transform="translate(1117.98,79.1216) rotate(89.9)">
			<title>Sheet.28</title>
			<path d="M0 792 L113.39 792" class="st1"/>
		</g>
		<g id="shape29-61" v:mID="29" v:groupContext="shape" transform="translate(663.245,797.107) rotate(154.797)">
			<title>Sheet.29</title>
			<path d="M0 792 L266.27 792" class="st1"/>
		</g>
		<g id="shape9-64" v:mID="9" v:groupContext="shape" transform="translate(326.182,985.89) rotate(180)">
			<title>Sheet.9</title>
			<path d="M0 792 L241.12 792" class="st1"/>
		</g>
		<g id="shape36-67" v:mID="36" v:groupContext="shape" transform="translate(28.3465,-144.567)">
			<title>Sheet.36</title>
			<path d="M0 792 L360 792" class="st1"/>
		</g>
	</g>
</svg>
