<?xml version="1.0" encoding="utf-8"?>
<!-- Generator: Adobe Illustrator 13.0.0, SVG Export Plug-In . SVG Version: 6.00 Build 14948)  -->
<!DOCTYPE svg PUBLIC "-//W3C//DTD SVG 1.1//EN" "http://www.w3.org/Graphics/SVG/1.1/DTD/svg11.dtd">
<svg version="1.1" id="Layer_1" xmlns="http://www.w3.org/2000/svg" xmlns:xlink="http://www.w3.org/1999/xlink" x="0px" y="0px"
	 width="575.999px" height="293.879px" viewBox="0 0 575.999 293.879" enable-background="new 0 0 575.999 293.879"
	 xml:space="preserve">
<g>
	<path d="M23.849,200.333c0.806-2.07,1.727-4.38,1.727-6.223c0-2.992-3.109-4.03-8.87-5.412v-1.957H36.52l29.724,82.6H55.066
		l-9.675-25.69H16.357l-9.099,25.69H0L23.849,200.333z M17.973,239.156h26.151l-13.017-40.204L17.973,239.156z"/>
	<path d="M76.39,226.828c0-7.251-5.761-7.368-9.101-7.718v-1.957L85.26,214.5v8.761h0.231c1.382-3.342,6.218-8.761,13.824-8.761
		c14.63,0,21.195,11.87,21.195,27.883c0,14.977-5.529,28.226-20.507,28.226c-8.063,0-13.017-5.302-14.513-9.104H85.26v32.374h-8.87
		V226.828z M85.26,245.611c0,7.719,2.881,20.503,13.017,20.503c10.6,0,12.443-14.395,12.443-23.498
		c0-8.069-2.19-23.621-12.788-23.621c-7.949,0-12.672,9.793-12.672,18.319V245.611z"/>
	<path d="M136.188,226.828c0-7.251-5.762-7.368-9.102-7.718v-1.957l17.97-2.652v8.761h0.232c1.38-3.342,6.219-8.761,13.822-8.761
		c14.632,0,21.197,11.87,21.197,27.883c0,14.977-5.528,28.226-20.505,28.226c-8.063,0-13.017-5.302-14.515-9.104h-0.232v32.374
		h-8.868V226.828z M145.056,245.611c0,7.719,2.882,20.503,13.019,20.503c10.599,0,12.446-14.395,12.446-23.498
		c0-8.069-2.194-23.621-12.792-23.621c-7.949,0-12.673,9.793-12.673,18.319V245.611z"/>
	<path d="M195.406,200.794c0-7.141-5.759-9.329-8.986-9.558v-1.96l17.857-2.531v82.596h-8.871V200.794z"/>
	<path d="M223.749,226.828c0-6.908-5.412-7.251-8.642-7.601v-1.96l17.514-2.767v54.841h-8.872V226.828z"/>
	<path d="M284.979,268.535c-1.382,0.575-7.142,2.074-14.284,2.074c-16.937,0-26.844-10.485-26.844-29.718
		c0-16.595,6.337-26.391,23.156-26.391c10.83,0,19.355,6.34,19.355,20.046v1.735h-33.64v2.417c0,11.171,8.064,27.415,24.077,27.415
		c2.765,0,5.645-0.688,8.179-1.381V268.535z M276.34,231.323c0-6.451-3.916-12.328-10.828-12.328
		c-10.485,0-12.328,9.45-12.676,13.367h23.504V231.323z"/>
	<path d="M331.186,261.737h-0.232c-1.956,3.57-6.337,8.872-14.516,8.872c-13.938,0-21.429-11.863-21.429-27.993
		c0-14.978,6.455-28.115,20.854-28.115c8.411,0,13.249,5.533,15.091,9.104h0.232v-20.732c0-7.493-1.964-11.521-8.758-11.635v-1.96
		l17.63-2.531v82.596h-8.872V261.737z M331.186,240.198c0-8.525-2.767-21.203-13.253-21.203c-10.71,0-13.131,14.288-13.131,23.621
		c0,7.947,1.96,23.498,12.674,23.498c10.601,0,13.71-12.438,13.71-21.313V240.198z"/>
	<path d="M370.475,191.237h-10.367c-9.679,0-9.907,4.148-10.6,11.175h-3.57l0.574-15.666h57.947l0.579,15.666h-3.574
		c-0.688-7.026-0.688-11.175-10.596-11.175h-10.372v78.104h-10.021V191.237z"/>
	<path d="M413.037,227.178c0-7.259-5.412-7.602-8.754-7.951v-1.96l17.626-2.767v13.713h0.231c1.496-4.838,4.377-13.713,15.32-13.713
		c0.346,0,0.688,0,1.035,0.117v9.562c-1.264-0.343-2.535-0.804-3.799-0.804c-11.178,0-12.788,11.289-12.788,18.315v27.65h-8.872
		V227.178z"/>
	<path d="M484.005,256.671h-0.229c-1.499,4.145-6.912,13.938-17.28,13.938c-12.902,0-15.783-8.872-15.783-21.656v-22.125
		c0-6.908-5.416-7.251-8.64-7.601v-1.96l17.512-2.767v35.951c0,7.486,1.842,14.513,9.675,14.513c7.604,0,14.745-14.17,14.745-21.656
		v-16.48c0-6.908-5.298-7.251-8.64-7.601v-1.96l17.512-2.767v54.841h-8.872V256.671z"/>
	<path d="M535.418,223.375c-1.846-0.925-7.49-4.381-13.945-4.381c-4.948,0-9.558,1.846-9.558,7.376
		c0,11.521,27.073,9.676,27.073,27.766c0,11.521-8.758,16.473-20.507,16.473c-7.487,0-11.981-1.385-14.863-2.303v-7.258
		c1.153,0.574,8.18,5.065,15.323,5.065c6.912,0,11.981-2.534,11.981-9.793c0-11.745-27.072-11.521-27.072-26.726
		c0-8.869,5.298-15.095,18.775-15.095c5.763,0,10.832,1.499,12.792,1.96V223.375z"/>
	<path d="M575.999,269.917c-2.185,0.464-4.373,0.692-6.562,0.692c-15.438,0-16.477-5.412-16.477-16.248v-34.673h-8.868v-3.92h8.868
		v-9.786l8.758-7.719v17.505h14.28v3.92h-14.166v38.019c0,6.908,4.145,8.407,9.793,8.407c1.495,0,2.995-0.225,4.373-0.457V269.917z"
		/>
	<path d="M291.314,140.152c15.537-4.235,26.653-7.643,49.165-8.595c-1.378-4.99-8.3-27.762-22.242-38.556
		c-2.133-1.673-1.987-1.586-8.362-4.969c14.271,19.565,7.86,28.991,7.86,28.991c2.04-9.994-7.352-24.514-14.291-32.575
		c0,0-4.599-2.715-5.77-3.359c10.354,20.801,4.8,27.658,4.8,27.658c1.344-12.549-6.465-24.6-10.305-30.376
		c-2.339-1.406-7.567-4.425-8.816-5.385c-5.146-3.836-6.971-11.337,3.379-12.432c12.338-1.295,17.391-4.415,23.298-6.791
		c7.452-3.016,21.782-14.731,48.2,16.075c26.006,30.262,31.816,21.605,46.808,45.471V0H239.601v165.439
		C247.21,156.955,275.727,144.408,291.314,140.152z"/>
	<g>
		<path d="M218.354,204.446c0.564,0.121,1.99,0.383,3.687,0.383c2.682,0,4.835-0.622,6.399-1.85
			c3.413-2.673,3.796-8.174,3.838-9.444c-0.565-0.121-1.995-0.385-3.696-0.385c-2.679,0-4.83,0.622-6.394,1.848
			C218.772,197.67,218.396,203.175,218.354,204.446L218.354,204.446z"/>
	</g>
</g>
</svg>
