<?xml version="1.0" encoding="utf-8"?>
<!-- Generator: Adobe Illustrator 13.0.0, SVG Export Plug-In . SVG Version: 6.00 Build 14948)  -->
<!DOCTYPE svg PUBLIC "-//W3C//DTD SVG 1.1//EN" "http://www.w3.org/Graphics/SVG/1.1/DTD/svg11.dtd">
<svg version="1.1" id="Layer_1" xmlns="http://www.w3.org/2000/svg" xmlns:xlink="http://www.w3.org/1999/xlink" x="0px" y="0px"
	 width="1116.852px" height="1116.85px" viewBox="0 0 1116.852 1116.85" enable-background="new 0 0 1116.852 1116.85"
	 xml:space="preserve">
<rect fill="#F6921E" width="1116.852" height="1116.85"/>
<rect x="14.173" y="14.173" fill="#FFFFFF" width="1088.504" height="1088.504"/>
<g>
	<path fill="#F6921E" d="M501.983,555.258c0.873,0.571,2.418,1.175,3.896,1.175c2.149,0,3.157-1.075,3.157-2.418
		c0-1.411-0.84-2.183-3.023-2.989c-2.922-1.041-4.299-2.653-4.299-4.601c0-2.62,2.116-4.769,5.609-4.769
		c1.646,0,3.09,0.47,3.997,1.008l-0.739,2.149c-0.638-0.403-1.814-0.94-3.325-0.94c-1.746,0-2.72,1.007-2.72,2.216
		c0,1.344,0.974,1.948,3.09,2.754c2.821,1.075,4.265,2.485,4.265,4.904c0,2.854-2.216,4.903-6.079,4.903
		c-1.78,0-3.426-0.47-4.568-1.142L501.983,555.258z"/>
	<path fill="#F6921E" d="M527.102,554.384c0,1.411,0.067,2.788,0.269,3.896h-2.687l-0.235-2.049h-0.101
		c-0.907,1.276-2.653,2.418-4.971,2.418c-3.292,0-4.971-2.317-4.971-4.668c0-3.929,3.493-6.079,9.773-6.045v-0.335
		c0-1.344-0.37-3.762-3.694-3.762c-1.511,0-3.09,0.47-4.232,1.209l-0.671-1.948c1.343-0.873,3.291-1.444,5.34-1.444
		c4.971,0,6.179,3.392,6.179,6.65V554.384z M524.247,549.985c-3.224-0.067-6.885,0.504-6.885,3.661c0,1.915,1.276,2.821,2.788,2.821
		c2.116,0,3.459-1.343,3.929-2.72c0.101-0.302,0.168-0.638,0.168-0.94V549.985z"/>
	<path fill="#F6921E" d="M532.17,558.28v-14.005h-2.284v-2.25h2.284v-0.772c0-2.284,0.504-4.366,1.881-5.676
		c1.108-1.075,2.586-1.511,3.963-1.511c1.041,0,1.948,0.235,2.519,0.47l-0.402,2.284c-0.437-0.202-1.041-0.37-1.881-0.37
		c-2.52,0-3.157,2.217-3.157,4.702v0.873h3.93v2.25h-3.93v14.005H532.17z"/>
	<path fill="#F6921E" d="M542.882,550.69c0.066,3.997,2.619,5.643,5.574,5.643c2.116,0,3.393-0.37,4.501-0.84l0.504,2.116
		c-1.041,0.47-2.821,1.041-5.407,1.041c-5.004,0-7.993-3.325-7.993-8.228s2.888-8.766,7.624-8.766c5.306,0,6.717,4.668,6.717,7.657
		c0,0.604-0.067,1.075-0.102,1.377H542.882z M551.546,548.574c0.034-1.881-0.772-4.803-4.097-4.803
		c-2.989,0-4.299,2.754-4.534,4.803H551.546z"/>
	<path fill="#F6921E" d="M576.595,554.384c0,1.411,0.067,2.788,0.269,3.896h-2.687l-0.235-2.049h-0.101
		c-0.906,1.276-2.653,2.418-4.971,2.418c-3.291,0-4.97-2.317-4.97-4.668c0-3.929,3.492-6.079,9.772-6.045v-0.335
		c0-1.344-0.369-3.762-3.694-3.762c-1.511,0-3.09,0.47-4.231,1.209l-0.672-1.948c1.344-0.873,3.292-1.444,5.34-1.444
		c4.971,0,6.18,3.392,6.18,6.65V554.384z M573.74,549.985c-3.224-0.067-6.885,0.504-6.885,3.661c0,1.915,1.276,2.821,2.787,2.821
		c2.116,0,3.46-1.343,3.93-2.72c0.101-0.302,0.168-0.638,0.168-0.94V549.985z"/>
	<path fill="#F6921E" d="M581.361,547.097c0-1.915-0.034-3.56-0.135-5.071h2.586l0.101,3.19h0.135c0.738-2.183,2.519-3.56,4.5-3.56
		c0.336,0,0.571,0.034,0.84,0.101v2.787c-0.303-0.067-0.604-0.101-1.008-0.101c-2.082,0-3.56,1.579-3.963,3.795
		c-0.067,0.403-0.135,0.874-0.135,1.377v8.665h-2.921V547.097z"/>
	<path fill="#F6921E" d="M593.651,550.69c0.066,3.997,2.619,5.643,5.574,5.643c2.116,0,3.393-0.37,4.501-0.84l0.504,2.116
		c-1.041,0.47-2.821,1.041-5.407,1.041c-5.004,0-7.993-3.325-7.993-8.228s2.888-8.766,7.624-8.766c5.306,0,6.717,4.668,6.717,7.657
		c0,0.604-0.067,1.075-0.102,1.377H593.651z M602.315,548.574c0.034-1.881-0.772-4.803-4.097-4.803
		c-2.989,0-4.299,2.754-4.534,4.803H602.315z"/>
	<path fill="#F6921E" d="M620.246,554.384c0,1.411,0.067,2.788,0.269,3.896h-2.687l-0.235-2.049h-0.101
		c-0.906,1.276-2.653,2.418-4.971,2.418c-3.291,0-4.97-2.317-4.97-4.668c0-3.929,3.492-6.079,9.772-6.045v-0.335
		c0-1.344-0.369-3.762-3.694-3.762c-1.511,0-3.09,0.47-4.231,1.209l-0.672-1.948c1.344-0.873,3.292-1.444,5.34-1.444
		c4.971,0,6.18,3.392,6.18,6.65V554.384z M617.392,549.985c-3.224-0.067-6.885,0.504-6.885,3.661c0,1.915,1.276,2.821,2.787,2.821
		c2.116,0,3.46-1.343,3.93-2.72c0.101-0.302,0.168-0.638,0.168-0.94V549.985z"/>
</g>
<line fill="#FFFFFF" stroke="#0000FF" stroke-width="0.0028" x1="378.587" y1="257.066" x2="378.587" y2="522.814"/>
<line fill="#FFFFFF" stroke="#0000FF" stroke-width="0.0028" x1="16.46" y1="257.066" x2="378.587" y2="257.066"/>
<line fill="#FFFFFF" stroke="#0000FF" stroke-width="0.0028" x1="16.46" y1="522.814" x2="16.46" y2="257.066"/>
<line fill="#FFFFFF" stroke="#0000FF" stroke-width="0.0028" x1="378.587" y1="522.814" x2="16.46" y2="522.814"/>
<rect x="16.46" y="16.765" fill="#FFFFFF" stroke="#0000FF" stroke-width="0.0028" width="362.126" height="240.35"/>
<line fill="#FFFFFF" stroke="#0000FF" stroke-width="0.0028" x1="378.831" y1="379.003" x2="378.831" y2="16.877"/>
<rect x="71.59" y="315.885" fill="#FFFFFF" stroke="#0000FF" stroke-width="0.0028" width="248.74" height="152.361"/>
<polyline fill="#FFFFFF" stroke="#0000FF" stroke-width="0.0028" points="492.237,16.882 605.623,16.882 605.623,257.232 
	492.237,257.232 "/>
<path fill="#FFFFFF" stroke="#0000FF" stroke-width="0.0028" d="M492.237,16.882"/>
<path fill="#FFFFFF" stroke="#0000FF" stroke-width="0.0028" d="M492.237,257.232"/>
<line fill="#FFFFFF" stroke="#0000FF" stroke-width="0.0028" x1="492.237" y1="257.232" x2="605.623" y2="16.882"/>
<g>
	<path fill="#231F20" d="M291.98,508.896h3.682l-1.833-5.661L291.98,508.896L291.98,508.896z M292.807,503.43
		c0.113-0.292,0.243-0.616,0.243-0.876c0-0.421-0.438-0.567-1.249-0.762v-0.275h2.79l4.185,11.63h-1.574l-1.362-3.617h-4.088
		l-1.281,3.617h-1.022L292.807,503.43L292.807,503.43z"/>
	<path fill="#231F20" d="M301.454,509.805c0,1.087,0.406,2.887,1.833,2.887c1.492,0,1.752-2.027,1.752-3.309
		c0-1.136-0.309-3.326-1.801-3.326c-1.119,0-1.784,1.379-1.784,2.579V509.805L301.454,509.805z M300.205,507.16
		c0-1.021-0.812-1.038-1.282-1.086v-0.276l2.53-0.373v1.233h0.033c0.195-0.471,0.875-1.233,1.946-1.233
		c2.06,0,2.984,1.671,2.984,3.926c0,2.108-0.778,3.974-2.887,3.974c-1.135,0-1.833-0.747-2.043-1.282h-0.033v4.558h-1.249V507.16
		L300.205,507.16z"/>
	<path fill="#231F20" d="M309.873,509.805c0,1.087,0.406,2.887,1.833,2.887c1.492,0,1.752-2.027,1.752-3.309
		c0-1.136-0.309-3.326-1.801-3.326c-1.12,0-1.785,1.379-1.785,2.579V509.805L309.873,509.805z M308.625,507.16
		c0-1.021-0.812-1.038-1.282-1.086v-0.276l2.53-0.373v1.233h0.033c0.194-0.471,0.875-1.233,1.946-1.233
		c2.06,0,2.984,1.671,2.984,3.926c0,2.108-0.778,3.974-2.887,3.974c-1.135,0-1.833-0.747-2.043-1.282h-0.033v4.558h-1.249V507.16
		L308.625,507.16z"/>
	<path fill="#231F20" d="M316.962,503.495c0-1.005-0.811-1.313-1.265-1.346v-0.276l2.514-0.356v11.629h-1.249V503.495
		L316.962,503.495z"/>
	<path fill="#231F20" d="M320.953,507.16c0-0.973-0.762-1.021-1.217-1.07v-0.276l2.466-0.389v7.721h-1.249V507.16L320.953,507.16z"
		/>
	<path fill="#231F20" d="M328.358,507.793c0-0.908-0.551-1.735-1.524-1.735c-1.477,0-1.736,1.33-1.785,1.882h3.31V507.793
		L328.358,507.793z M329.574,513.033c-0.194,0.081-1.005,0.292-2.011,0.292c-2.384,0-3.779-1.476-3.779-4.185
		c0-2.336,0.892-3.715,3.26-3.715c1.525,0,2.725,0.893,2.725,2.822v0.244h-4.736v0.34c0,1.573,1.135,3.86,3.39,3.86
		c0.389,0,0.794-0.097,1.151-0.195V513.033L329.574,513.033z"/>
	<path fill="#231F20" d="M336.08,509.043c0-1.201-0.39-2.985-1.866-2.985c-1.508,0-1.849,2.012-1.849,3.326
		c0,1.119,0.276,3.309,1.785,3.309c1.493,0,1.93-1.751,1.93-3.001V509.043L336.08,509.043z M336.08,512.075h-0.033
		c-0.275,0.503-0.892,1.25-2.044,1.25c-1.962,0-3.017-1.67-3.017-3.941c0-2.109,0.909-3.958,2.937-3.958
		c1.184,0,1.865,0.779,2.125,1.281h0.033v-2.919c0-1.055-0.276-1.622-1.233-1.638v-0.276l2.482-0.356v11.629h-1.249V512.075
		L336.08,512.075z"/>
	<path fill="#231F20" d="M341.612,502.149h-1.46c-1.363,0-1.395,0.584-1.492,1.574h-0.503l0.081-2.206h8.159l0.082,2.206h-0.503
		c-0.097-0.99-0.097-1.574-1.492-1.574h-1.46v10.997h-1.411V502.149L341.612,502.149z"/>
	<path fill="#231F20" d="M347.605,507.209c0-1.022-0.762-1.07-1.233-1.12v-0.276l2.482-0.389v1.931h0.033
		c0.21-0.681,0.616-1.931,2.157-1.931c0.048,0,0.097,0,0.146,0.017v1.346c-0.178-0.048-0.357-0.113-0.535-0.113
		c-1.574,0-1.801,1.589-1.801,2.579v3.893h-1.249V507.209L347.605,507.209z"/>
	<path fill="#231F20" d="M357.597,511.362h-0.032c-0.211,0.583-0.973,1.962-2.433,1.962c-1.816,0-2.222-1.25-2.222-3.049v-3.115
		c0-0.973-0.763-1.021-1.216-1.07v-0.276l2.465-0.389v5.062c0,1.054,0.259,2.043,1.362,2.043c1.071,0,2.076-1.995,2.076-3.049v-2.32
		c0-0.973-0.746-1.021-1.216-1.07v-0.276l2.465-0.389v7.721h-1.249V511.362L357.597,511.362z"/>
	<path fill="#231F20" d="M364.836,506.674c-0.26-0.13-1.055-0.617-1.963-0.617c-0.697,0-1.346,0.26-1.346,1.039
		c0,1.622,3.812,1.362,3.812,3.909c0,1.622-1.233,2.319-2.888,2.319c-1.054,0-1.687-0.195-2.092-0.324v-1.022
		c0.162,0.081,1.151,0.713,2.157,0.713c0.973,0,1.687-0.357,1.687-1.379c0-1.654-3.812-1.622-3.812-3.763
		c0-1.249,0.746-2.125,2.644-2.125c0.811,0,1.525,0.211,1.801,0.276V506.674L364.836,506.674z"/>
	<path fill="#231F20" d="M370.55,513.227c-0.308,0.065-0.616,0.098-0.924,0.098c-2.173,0-2.32-0.762-2.32-2.288v-4.882h-1.249
		v-0.552h1.249v-1.378l1.233-1.087v2.465h2.011v0.552h-1.995v5.353c0,0.973,0.583,1.184,1.379,1.184c0.21,0,0.422-0.032,0.616-0.064
		V513.227L370.55,513.227z"/>
	<path fill="#231F20" d="M330.466,494.956c2.188-0.596,3.753-1.076,6.922-1.21c-0.194-0.703-1.168-3.909-3.132-5.429
		c-0.3-0.235-0.28-0.223-1.177-0.7c2.009,2.755,1.106,4.082,1.106,4.082c0.288-1.407-1.035-3.452-2.012-4.586
		c0,0-0.647-0.382-0.813-0.473c1.458,2.929,0.676,3.895,0.676,3.895c0.189-1.767-0.91-3.464-1.451-4.277
		c-0.33-0.198-1.065-0.624-1.241-0.758c-0.725-0.541-0.982-1.596,0.476-1.75c1.737-0.182,2.448-0.622,3.28-0.956
		c1.049-0.425,3.067-2.074,6.786,2.263c3.662,4.261,4.48,3.042,6.591,6.402v-16.235h-23.293v23.293
		C324.256,497.322,328.271,495.556,330.466,494.956L330.466,494.956z"/>
	<path fill="#231F20" d="M320.193,504.009c0.08,0.017,0.28,0.054,0.519,0.054c0.378,0,0.681-0.088,0.901-0.261
		c0.48-0.376,0.534-1.151,0.54-1.33c-0.08-0.017-0.281-0.054-0.52-0.054c-0.377,0-0.68,0.087-0.9,0.26
		C320.252,503.055,320.199,503.83,320.193,504.009L320.193,504.009L320.193,504.009z"/>
</g>
<polyline fill="#FFFFFF" stroke="#0000FF" stroke-width="0.0028" points="378.831,16.877 492.217,16.877 492.217,379.003 
	378.831,379.003 "/>
</svg>
